<svg id="SvgjsSvg1184" width="803.6666870117188" height="391.6458435058594" xmlns="http://www.w3.org/2000/svg" version="1.1" xmlns:xlink="http://www.w3.org/1999/xlink" xmlns:svgjs="http://svgjs.com/svgjs"><defs id="SvgjsDefs1185"><marker id="SvgjsMarker1194" markerWidth="12" markerHeight="8" refX="9" refY="4" viewBox="0 0 12 8" orient="auto" markerUnits="userSpaceOnUse" stroke-dasharray="0,0"><path id="SvgjsPath1195" d="M0,0 L12,4 L0,8 L0,0" fill="#000000" stroke="#000000" stroke-width="1"></path></marker><linearGradient id="SvgjsLinearGradient1198" x1="0.9999999999999987" y1="0.5000000366025518" x2="1.3322676295501878e-15" y2="0.4999999633974483"><stop id="SvgjsStop1199" stop-opacity="1" stop-color="#64b0ff" offset="0"></stop><stop id="SvgjsStop1200" stop-opacity="1" stop-color="#64b0ff" offset="1"></stop></linearGradient><marker id="SvgjsMarker1207" markerWidth="12" markerHeight="8" refX="9" refY="4" viewBox="0 0 12 8" orient="auto" markerUnits="userSpaceOnUse" stroke-dasharray="0,0"><path id="SvgjsPath1208" d="M0,0 L12,4 L0,8 L0,0" fill="#000000" stroke="#000000" stroke-width="1"></path></marker><linearGradient id="SvgjsLinearGradient1219" x1="0.9999999999999987" y1="0.5000000366025518" x2="1.3322676295501878e-15" y2="0.4999999633974483"><stop id="SvgjsStop1220" stop-opacity="1" stop-color="#64b0ff" offset="0"></stop><stop id="SvgjsStop1221" stop-opacity="1" stop-color="#64b0ff" offset="1"></stop></linearGradient><linearGradient id="SvgjsLinearGradient1228" x1="0.9999999999999987" y1="0.5000000366025518" x2="1.3322676295501878e-15" y2="0.4999999633974483"><stop id="SvgjsStop1229" stop-opacity="1" stop-color="#64b0ff" offset="0"></stop><stop id="SvgjsStop1230" stop-opacity="1" stop-color="#64b0ff" offset="1"></stop></linearGradient><linearGradient id="SvgjsLinearGradient1237" x1="0.9999999999999987" y1="0.5000000366025518" x2="1.3322676295501878e-15" y2="0.4999999633974483"><stop id="SvgjsStop1238" stop-opacity="1" stop-color="#64b0ff" offset="0"></stop><stop id="SvgjsStop1239" stop-opacity="1" stop-color="#64b0ff" offset="1"></stop></linearGradient><marker id="SvgjsMarker1264" markerWidth="14" markerHeight="10" refX="10" refY="5" viewBox="0 0 14 10" orient="auto" markerUnits="userSpaceOnUse" stroke-dasharray="0,0"><path id="SvgjsPath1265" d="M0,0 L14,5 L0,10 L0,0" fill="#323232" stroke="#323232" stroke-width="1"></path></marker><marker id="SvgjsMarker1268" markerWidth="14" markerHeight="10" refX="10" refY="5" viewBox="0 0 14 10" orient="auto" markerUnits="userSpaceOnUse" stroke-dasharray="0,0"><path id="SvgjsPath1269" d="M0,0 L14,5 L0,10 L0,0" fill="#323232" stroke="#323232" stroke-width="1"></path></marker><marker id="SvgjsMarker1278" markerWidth="14" markerHeight="10" refX="10" refY="5" viewBox="0 0 14 10" orient="auto" markerUnits="userSpaceOnUse" stroke-dasharray="0,0"><path id="SvgjsPath1279" d="M0,0 L14,5 L0,10 L0,0" fill="#323232" stroke="#323232" stroke-width="1"></path></marker><marker id="SvgjsMarker1282" markerWidth="14" markerHeight="10" refX="10" refY="5" viewBox="0 0 14 10" orient="auto" markerUnits="userSpaceOnUse" stroke-dasharray="0,0"><path id="SvgjsPath1283" d="M0,0 L14,5 L0,10 L0,0" fill="#323232" stroke="#323232" stroke-width="1"></path></marker><marker id="SvgjsMarker1286" markerWidth="14" markerHeight="10" refX="10" refY="5" viewBox="0 0 14 10" orient="auto" markerUnits="userSpaceOnUse" stroke-dasharray="0,0"><path id="SvgjsPath1287" d="M0,0 L14,5 L0,10 L0,0" fill="#323232" stroke="#323232" stroke-width="1"></path></marker><marker id="SvgjsMarker1290" markerWidth="14" markerHeight="10" refX="10" refY="5" viewBox="0 0 14 10" orient="auto" markerUnits="userSpaceOnUse" stroke-dasharray="0,0"><path id="SvgjsPath1291" d="M0,0 L14,5 L0,10 L0,0" fill="#323232" stroke="#323232" stroke-width="1"></path></marker><marker id="SvgjsMarker1294" markerWidth="14" markerHeight="10" refX="10" refY="5" viewBox="0 0 14 10" orient="auto" markerUnits="userSpaceOnUse" stroke-dasharray="0,0"><path id="SvgjsPath1295" d="M0,0 L14,5 L0,10 L0,0" fill="#323232" stroke="#323232" stroke-width="1"></path></marker><marker id="SvgjsMarker1304" markerWidth="14" markerHeight="10" refX="10" refY="5" viewBox="0 0 14 10" orient="auto" markerUnits="userSpaceOnUse" stroke-dasharray="0,0"><path id="SvgjsPath1305" d="M0,0 L14,5 L0,10 L0,0" fill="#323232" stroke="#323232" stroke-width="1"></path></marker><linearGradient id="SvgjsLinearGradient1308" x1="0.9999999999999987" y1="0.5000000366025518" x2="1.3322676295501878e-15" y2="0.4999999633974483"><stop id="SvgjsStop1309" stop-opacity="1" stop-color="#64b0ff" offset="0"></stop><stop id="SvgjsStop1310" stop-opacity="1" stop-color="#64b0ff" offset="1"></stop></linearGradient><linearGradient id="SvgjsLinearGradient1317" x1="0.9999999999999987" y1="0.5000000366025518" x2="1.3322676295501878e-15" y2="0.4999999633974483"><stop id="SvgjsStop1318" stop-opacity="1" stop-color="#64b0ff" offset="0"></stop><stop id="SvgjsStop1319" stop-opacity="1" stop-color="#64b0ff" offset="1"></stop></linearGradient><marker id="SvgjsMarker1326" markerWidth="14" markerHeight="10" refX="10" refY="5" viewBox="0 0 14 10" orient="auto" markerUnits="userSpaceOnUse" stroke-dasharray="0,0"><path id="SvgjsPath1327" d="M0,0 L14,5 L0,10 L0,0" fill="#323232" stroke="#323232" stroke-width="1"></path></marker><marker id="SvgjsMarker1330" markerWidth="14" markerHeight="10" refX="10" refY="5" viewBox="0 0 14 10" orient="auto" markerUnits="userSpaceOnUse" stroke-dasharray="0,0"><path id="SvgjsPath1331" d="M0,0 L14,5 L0,10 L0,0" fill="#323232" stroke="#323232" stroke-width="1"></path></marker><marker id="SvgjsMarker1352" markerWidth="14" markerHeight="10" refX="10" refY="5" viewBox="0 0 14 10" orient="auto" markerUnits="userSpaceOnUse" stroke-dasharray="0,0"><path id="SvgjsPath1353" d="M0,0 L14,5 L0,10 L0,0" fill="#323232" stroke="#323232" stroke-width="1"></path></marker><marker id="SvgjsMarker1356" markerWidth="14" markerHeight="10" refX="10" refY="5" viewBox="0 0 14 10" orient="auto" markerUnits="userSpaceOnUse" stroke-dasharray="0,0"><path id="SvgjsPath1357" d="M0,0 L14,5 L0,10 L0,0" fill="#323232" stroke="#323232" stroke-width="1"></path></marker><marker id="SvgjsMarker1360" markerWidth="14" markerHeight="10" refX="10" refY="5" viewBox="0 0 14 10" orient="auto" markerUnits="userSpaceOnUse" stroke-dasharray="0,0"><path id="SvgjsPath1361" d="M0,0 L14,5 L0,10 L0,0" fill="#323232" stroke="#323232" stroke-width="1"></path></marker></defs><g id="SvgjsG1186" transform="translate(25.008312988281247,147.82915649414065)"><path id="SvgjsPath1187" d="M 0 22L 14.666666666666666 0L 73.33333333333333 0L 88 22L 73.33333333333333 44L 14.666666666666666 44L 0 22Z" stroke="rgba(187,222,251,1)" stroke-width="2" fill-opacity="1" fill="#bbdefb"></path><g id="SvgjsG1188"><text id="SvgjsText1189" font-family="Arial" text-anchor="middle" font-size="11px" width="68px" fill="#000000" font-weight="400" align="middle" lineHeight="125%" anchor="middle" family="Arial" size="11px" weight="400" font-style="" opacity="1" y="12.625" transform="rotate(0)"><tspan id="SvgjsTspan1190" dy="13" x="44"><tspan id="SvgjsTspan1191" style="text-decoration:;">movies.csv</tspan></tspan></text></g></g><g id="SvgjsG1192"><path id="SvgjsPath1193" d="M114.00831298828126 169.82915649414065C 163.00831298828126 169.82915649414065 96.20831298828125 169.82915649414065 143.90831298828124 169.82915649414065" stroke="#000000" stroke-width="1" fill="none" marker-end="url(#SvgjsMarker1194)"></path></g><g id="SvgjsG1196" transform="translate(146.20831298828125,142.32915649414065)"><path id="SvgjsPath1197" d="M 0 0L 88 0L 88 55L 0 55L 0 0Z" stroke="rgba(83,158,238,1)" stroke-width="2" fill="url(#SvgjsLinearGradient1198)"></path><g id="SvgjsG1201"><text id="SvgjsText1202" font-family="Arial" text-anchor="middle" font-size="11px" width="68px" fill="#000000" font-weight="400" align="middle" lineHeight="125%" anchor="middle" family="Arial" size="11px" weight="400" font-style="" opacity="1" y="18.125" transform="rotate(0)"><tspan id="SvgjsTspan1203" dy="13" x="44"><tspan id="SvgjsTspan1204" style="text-decoration:;">INNER JOIN</tspan></tspan></text></g></g><g id="SvgjsG1205"><path id="SvgjsPath1206" d="M235.20831298828125 169.82915649414065C 284.20831298828125 169.82915649414065 218.20831298828125 169.82915649414065 265.90831298828124 169.82915649414065" stroke="#000000" stroke-width="1" fill="none" marker-end="url(#SvgjsMarker1207)"></path></g><g id="SvgjsG1209" transform="translate(268.20831298828125,147.82915649414065)"><path id="SvgjsPath1210" d="M 0 22L 14.666666666666666 0L 73.33333333333333 0L 88 22L 73.33333333333333 44L 14.666666666666666 44L 0 22Z" stroke="rgba(187,222,251,1)" stroke-width="2" fill-opacity="1" fill="#bbdefb"></path><g id="SvgjsG1211"><text id="SvgjsText1212" font-family="Arial" text-anchor="middle" font-size="11px" width="68px" fill="#000000" font-weight="400" align="middle" lineHeight="125%" anchor="middle" family="Arial" size="11px" weight="400" font-style="" opacity="1" y="5.625" transform="rotate(0)"><tspan id="SvgjsTspan1213" dy="13" x="44"><tspan id="SvgjsTspan1214" style="text-decoration:;">base </tspan></tspan><tspan id="SvgjsTspan1215" dy="13" x="44"><tspan id="SvgjsTspan1216" style="text-decoration:;">dataframe</tspan></tspan></text></g></g><g id="SvgjsG1217" transform="translate(433.00831298828064,87.32915649414065)"><path id="SvgjsPath1218" d="M 0 0L 88 0L 88 55L 0 55L 0 0Z" stroke="rgba(83,158,238,1)" stroke-width="2" fill="url(#SvgjsLinearGradient1219)"></path><g id="SvgjsG1222"><text id="SvgjsText1223" font-family="Arial" text-anchor="middle" font-size="11px" width="68px" fill="#000000" font-weight="400" align="middle" lineHeight="125%" anchor="middle" family="Arial" size="11px" weight="400" font-style="" opacity="1" y="18.125" transform="rotate(0)"><tspan id="SvgjsTspan1224" dy="13" x="44"><tspan id="SvgjsTspan1225" style="text-decoration:;">INNER JOIN</tspan></tspan></text></g></g><g id="SvgjsG1226" transform="translate(433.00831298828075,205.32915649414082)"><path id="SvgjsPath1227" d="M 0 0L 88 0L 88 55L 0 55L 0 0Z" stroke="rgba(83,158,238,1)" stroke-width="2" fill="url(#SvgjsLinearGradient1228)"></path><g id="SvgjsG1231"><text id="SvgjsText1232" font-family="Arial" text-anchor="middle" font-size="11px" width="68px" fill="#000000" font-weight="400" align="middle" lineHeight="125%" anchor="middle" family="Arial" size="11px" weight="400" font-style="" opacity="1" y="18.125" transform="rotate(0)"><tspan id="SvgjsTspan1233" dy="13" x="44"><tspan id="SvgjsTspan1234" style="text-decoration:;">INNER JOIN</tspan></tspan></text></g></g><g id="SvgjsG1235" transform="translate(304.6749796549481,279.66248982747385)"><path id="SvgjsPath1236" d="M 0 0L 88 0L 88 55L 0 55L 0 0Z" stroke="rgba(83,158,238,1)" stroke-width="2" fill="url(#SvgjsLinearGradient1237)"></path><g id="SvgjsG1240"><text id="SvgjsText1241" font-family="Arial" text-anchor="middle" font-size="11px" width="68px" fill="#000000" font-weight="400" align="middle" lineHeight="125%" anchor="middle" family="Arial" size="11px" weight="400" font-style="" opacity="1" y="18.125" transform="rotate(0)"><tspan id="SvgjsTspan1242" dy="13" x="44"><tspan id="SvgjsTspan1243" style="text-decoration:;">INNER JOIN</tspan></tspan></text></g></g><g id="SvgjsG1244" transform="translate(170.7083129882816,250.6526859059053)"><path id="SvgjsPath1245" d="M 0 22L 15.166666666666666 0L 75.83333333333333 0L 91 22L 75.83333333333333 44L 15.166666666666666 44L 0 22Z" stroke="rgba(187,222,251,1)" stroke-width="2" fill-opacity="1" fill="#bbdefb"></path><g id="SvgjsG1246"><text id="SvgjsText1247" font-family="Arial" text-anchor="middle" font-size="11px" width="71px" fill="#000000" font-weight="400" align="middle" lineHeight="125%" anchor="middle" family="Arial" size="11px" weight="400" font-style="" opacity="1" y="12.625" transform="rotate(0)"><tspan id="SvgjsTspan1248" dy="13" x="45.5"><tspan id="SvgjsTspan1249" style="text-decoration:;">tags.csv</tspan></tspan></text></g></g><g id="SvgjsG1250" transform="translate(25.008312988281205,226.65268590590534)"><path id="SvgjsPath1251" d="M 0 22L 14.666666666666666 0L 73.33333333333333 0L 88 22L 73.33333333333333 44L 14.666666666666666 44L 0 22Z" stroke="rgba(187,222,251,1)" stroke-width="2" fill-opacity="1" fill="#bbdefb"></path><g id="SvgjsG1252"><text id="SvgjsText1253" font-family="Arial" text-anchor="middle" font-size="11px" width="68px" fill="#000000" font-weight="400" align="middle" lineHeight="125%" anchor="middle" family="Arial" size="11px" weight="400" font-style="" opacity="1" y="12.625" transform="rotate(0)"><tspan id="SvgjsTspan1254" dy="13" x="44"><tspan id="SvgjsTspan1255" style="text-decoration:;">links.csv</tspan></tspan></text></g></g><g id="SvgjsG1256" transform="translate(25.008312988281247,69.0056270823759)"><path id="SvgjsPath1257" d="M 0 22L 14.666666666666666 0L 73.33333333333333 0L 88 22L 73.33333333333333 44L 14.666666666666666 44L 0 22Z" stroke="rgba(187,222,251,1)" stroke-width="2" fill-opacity="1" fill="#bbdefb"></path><g id="SvgjsG1258"><text id="SvgjsText1259" font-family="Arial" text-anchor="middle" font-size="11px" width="68px" fill="#000000" font-weight="400" align="middle" lineHeight="125%" anchor="middle" family="Arial" size="11px" weight="400" font-style="" opacity="1" y="12.625" transform="rotate(0)"><tspan id="SvgjsTspan1260" dy="13" x="44"><tspan id="SvgjsTspan1261" style="text-decoration:;">links.csv</tspan></tspan></text></g></g><g id="SvgjsG1262"><path id="SvgjsPath1263" d="M114.00831298828126 91.0056270823759L129.60831298828126 91.0056270823759L129.60831298828126 169.82915649414065L142.60831298828126 169.82915649414065" stroke="#323232" stroke-width="2" fill="none" marker-end="url(#SvgjsMarker1264)"></path></g><g id="SvgjsG1266"><path id="SvgjsPath1267" d="M114.0083129882812 248.65268590590534L129.60831298828123 248.65268590590534L129.60831298828123 169.82915649414065L142.60831298828126 169.82915649414065" stroke="#323232" stroke-width="2" fill="none" marker-end="url(#SvgjsMarker1268)"></path></g><g id="SvgjsG1270" transform="translate(170.7083129882817,322.65268590590495)"><path id="SvgjsPath1271" d="M 0 22L 15.166666666666666 0L 75.83333333333333 0L 91 22L 75.83333333333333 44L 15.166666666666666 44L 0 22Z" stroke="rgba(187,222,251,1)" stroke-width="2" fill-opacity="1" fill="#bbdefb"></path><g id="SvgjsG1272"><text id="SvgjsText1273" font-family="Arial" text-anchor="middle" font-size="11px" width="71px" fill="#000000" font-weight="400" align="middle" lineHeight="125%" anchor="middle" family="Arial" size="11px" weight="400" font-style="" opacity="1" y="12.625" transform="rotate(0)"><tspan id="SvgjsTspan1274" dy="13" x="45.5"><tspan id="SvgjsTspan1275" style="text-decoration:;">scores.csv</tspan></tspan></text></g></g><g id="SvgjsG1276"><path id="SvgjsPath1277" d="M262.70831298828136 272.6526859059053L283.19164632161477 272.6526859059053L283.19164632161477 307.16248982747385L301.0749796549481 307.16248982747385" stroke="#323232" stroke-width="2" fill="none" marker-end="url(#SvgjsMarker1278)"></path></g><g id="SvgjsG1280"><path id="SvgjsPath1281" d="M262.7083129882815 344.65268590590495L283.19164632161477 344.65268590590495L283.19164632161477 307.16248982747385L301.0749796549481 307.16248982747385" stroke="#323232" stroke-width="2" fill="none" marker-end="url(#SvgjsMarker1282)"></path></g><g id="SvgjsG1284"><path id="SvgjsPath1285" d="M357.20831298828125 169.82915649414065L394.60831298828094 169.82915649414065L394.60831298828094 114.82915649414065L429.4083129882806 114.82915649414065" stroke="#323232" stroke-width="2" fill="none" marker-end="url(#SvgjsMarker1286)"></path></g><g id="SvgjsG1288"><path id="SvgjsPath1289" d="M357.20831298828125 169.82915649414065L394.608312988281 169.82915649414065L394.608312988281 232.82915649414082L429.4083129882807 232.82915649414082" stroke="#323232" stroke-width="2" fill="none" marker-end="url(#SvgjsMarker1290)"></path></g><g id="SvgjsG1292"><path id="SvgjsPath1293" d="M393.6749796549481 307.16248982747385L412.84164632161446 307.16248982747385L412.84164632161446 232.82915649414082L429.4083129882807 232.82915649414082" stroke="#323232" stroke-width="2" fill="none" marker-end="url(#SvgjsMarker1294)"></path></g><g id="SvgjsG1296" transform="translate(266.70831298828125,25.005627082375895)"><path id="SvgjsPath1297" d="M 0 22L 15.166666666666666 0L 75.83333333333333 0L 91 22L 75.83333333333333 44L 15.166666666666666 44L 0 22Z" stroke="rgba(187,222,251,1)" stroke-width="2" fill-opacity="1" fill="#bbdefb"></path><g id="SvgjsG1298"><text id="SvgjsText1299" font-family="Arial" text-anchor="middle" font-size="11px" width="71px" fill="#000000" font-weight="400" align="middle" lineHeight="125%" anchor="middle" family="Arial" size="11px" weight="400" font-style="" opacity="1" y="12.625" transform="rotate(0)"><tspan id="SvgjsTspan1300" dy="13" x="45.5"><tspan id="SvgjsTspan1301" style="text-decoration:;">ratings.csv</tspan></tspan></text></g></g><g id="SvgjsG1302"><path id="SvgjsPath1303" d="M358.70831298828125 47.005627082375895L395.35831298828094 47.005627082375895L395.35831298828094 114.82915649414065L429.4083129882806 114.82915649414065" stroke="#323232" stroke-width="2" fill="none" marker-end="url(#SvgjsMarker1304)"></path></g><g id="SvgjsG1306" transform="translate(562.3416463216136,87.32915649414065)"><path id="SvgjsPath1307" d="M 0 0L 88 0L 88 55L 0 55L 0 0Z" stroke="rgba(83,158,238,1)" stroke-width="2" fill="url(#SvgjsLinearGradient1308)"></path><g id="SvgjsG1311"><text id="SvgjsText1312" font-family="Arial" text-anchor="middle" font-size="11px" width="68px" fill="#000000" font-weight="400" align="middle" lineHeight="125%" anchor="middle" family="Arial" size="11px" weight="400" font-style="" opacity="1" y="18.125" transform="rotate(0)"><tspan id="SvgjsTspan1313" dy="13" x="44"><tspan id="SvgjsTspan1314" style="text-decoration:;">GROUP BY</tspan></tspan></text></g></g><g id="SvgjsG1315" transform="translate(562.3416463216139,205.32915649414088)"><path id="SvgjsPath1316" d="M 0 0L 88 0L 88 55L 0 55L 0 0Z" stroke="rgba(83,158,238,1)" stroke-width="2" fill="url(#SvgjsLinearGradient1317)"></path><g id="SvgjsG1320"><text id="SvgjsText1321" font-family="Arial" text-anchor="middle" font-size="11px" width="68px" fill="#000000" font-weight="400" align="middle" lineHeight="125%" anchor="middle" family="Arial" size="11px" weight="400" font-style="" opacity="1" y="18.125" transform="rotate(0)"><tspan id="SvgjsTspan1322" dy="13" x="44"><tspan id="SvgjsTspan1323" style="text-decoration:;">GROUP BY</tspan></tspan></text></g></g><g id="SvgjsG1324"><path id="SvgjsPath1325" d="M522.0083129882806 114.82915649414065L541.674979654947 114.82915649414065L541.674979654947 114.82915649414062L558.7416463216135 114.82915649414062" stroke="#323232" stroke-width="2" fill="none" marker-end="url(#SvgjsMarker1326)"></path></g><g id="SvgjsG1328"><path id="SvgjsPath1329" d="M522.0083129882807 232.82915649414082L541.6749796549473 232.82915649414082L541.6749796549473 232.82915649414082L558.7416463216139 232.82915649414082" stroke="#323232" stroke-width="2" fill="none" marker-end="url(#SvgjsMarker1330)"></path></g><g id="SvgjsG1332" transform="translate(719.6749796549458,45.50562708237587)"><path id="SvgjsPath1333" d="M 0 29.5C 0 -9.833333333333334 59 -9.833333333333334 59 29.5C 59 68.83333333333333 0 68.83333333333333 0 29.5Z" stroke="rgba(255,241,118,1)" stroke-width="2" fill-opacity="1" fill="#fff9c4"></path><g id="SvgjsG1334"><text id="SvgjsText1335" font-family="Arial" text-anchor="middle" font-size="12px" width="39px" fill="#323232" font-weight="400" align="middle" lineHeight="125%" anchor="middle" family="Arial" size="12px" weight="400" font-style="" opacity="1" y="19.5" transform="rotate(0)"><tspan id="SvgjsTspan1336" dy="15" x="29.5"><tspan id="SvgjsTspan1337" style="text-decoration:;">Q1</tspan></tspan></text></g></g><g id="SvgjsG1338" transform="translate(719.6749796549458,126.30562708237593)"><path id="SvgjsPath1339" d="M 0 29.5C 0 -9.833333333333334 59 -9.833333333333334 59 29.5C 59 68.83333333333333 0 68.83333333333333 0 29.5Z" stroke="rgba(255,241,118,1)" stroke-width="2" fill-opacity="1" fill="#fff9c4"></path><g id="SvgjsG1340"><text id="SvgjsText1341" font-family="Arial" text-anchor="middle" font-size="12px" width="39px" fill="#323232" font-weight="400" align="middle" lineHeight="125%" anchor="middle" family="Arial" size="12px" weight="400" font-style="" opacity="1" y="19.5" transform="rotate(0)"><tspan id="SvgjsTspan1342" dy="15" x="29.5"><tspan id="SvgjsTspan1343" style="text-decoration:;">Q3</tspan></tspan></text></g></g><g id="SvgjsG1344" transform="translate(719.674979654946,201.32915649414088)"><path id="SvgjsPath1345" d="M 0 29.5C 0 -9.833333333333334 59 -9.833333333333334 59 29.5C 59 68.83333333333333 0 68.83333333333333 0 29.5Z" stroke="rgba(255,241,118,1)" stroke-width="2" fill-opacity="1" fill="#fff9c4"></path><g id="SvgjsG1346"><text id="SvgjsText1347" font-family="Arial" text-anchor="middle" font-size="12px" width="39px" fill="#323232" font-weight="400" align="middle" lineHeight="125%" anchor="middle" family="Arial" size="12px" weight="400" font-style="" opacity="1" y="19.5" transform="rotate(0)"><tspan id="SvgjsTspan1348" dy="15" x="29.5"><tspan id="SvgjsTspan1349" style="text-decoration:;">Q2</tspan></tspan></text></g></g><g id="SvgjsG1350"><path id="SvgjsPath1351" d="M651.3416463216139 232.82915649414088L685.00831298828 232.82915649414088L685.00831298828 232.82915649414088L716.074979654946 232.82915649414088" stroke="#323232" stroke-width="2" fill="none" marker-end="url(#SvgjsMarker1352)"></path></g><g id="SvgjsG1354"><path id="SvgjsPath1355" d="M651.3416463216136 114.82915649414065L685.0083129882796 114.82915649414065L685.0083129882796 155.80562708237596L716.0749796549458 155.80562708237596" stroke="#323232" stroke-width="2" fill="none" marker-end="url(#SvgjsMarker1356)"></path></g><g id="SvgjsG1358"><path id="SvgjsPath1359" d="M651.3416463216136 114.82915649414065L685.0083129882796 114.82915649414065L685.0083129882796 75.00562708237587L716.0749796549458 75.00562708237587" stroke="#323232" stroke-width="2" fill="none" marker-end="url(#SvgjsMarker1360)"></path></g></svg>